sfk_cyclingleg_states
version=1
nRows=6
nColumns=53
inDegrees=yes

# SIMM Motion File Header:
name sfk_cyclingleg_states
datacolumns 53
datarows 6
otherdata 1
range 0.41256343 0.41534633
endheader
time	/jointset/bb/crank_angle/value	/jointset/bb/crank_angle/speed	/jointset/spindle/pedal_angle_r/value	/jointset/spindle/pedal_angle_r/speed	/jointset/ground_pelvis/pelvis_tilt/value	/jointset/ground_pelvis/pelvis_tilt/speed	/jointset/ground_pelvis/pelvis_list/value	/jointset/ground_pelvis/pelvis_list/speed	/jointset/ground_pelvis/pelvis_rotation/value	/jointset/ground_pelvis/pelvis_rotation/speed	/jointset/ground_pelvis/pelvis_tx/value	/jointset/ground_pelvis/pelvis_tx/speed	/jointset/ground_pelvis/pelvis_ty/value	/jointset/ground_pelvis/pelvis_ty/speed	/jointset/ground_pelvis/pelvis_tz/value	/jointset/ground_pelvis/pelvis_tz/speed	/jointset/hip_r/hip_angle_r/value	/jointset/hip_r/hip_angle_r/speed	/jointset/hip_r/hip_adduction_r/value	/jointset/hip_r/hip_adduction_r/speed	/jointset/hip_r/hip_rotation_r/value	/jointset/hip_r/hip_rotation_r/speed	/jointset/knee_r/knee_angle_r/value	/jointset/knee_r/knee_angle_r/speed	/jointset/knee_r/tib_tx_r/value	/jointset/knee_r/tib_tx_r/speed	/jointset/knee_r/tib_ty_r/value	/jointset/knee_r/tib_ty_r/speed	/jointset/tib_pat_r/pat_angle_r/value	/jointset/tib_pat_r/pat_angle_r/speed	/jointset/tib_pat_r/pat_tx_r/value	/jointset/tib_pat_r/pat_tx_r/speed	/jointset/tib_pat_r/pat_ty_r/value	/jointset/tib_pat_r/pat_ty_r/speed	/jointset/ankle_r/ankle_angle_r/value	/jointset/ankle_r/ankle_angle_r/speed	/jointset/subtalar_r/subtalar_angle_r/value	/jointset/subtalar_r/subtalar_angle_r/speed	/jointset/mtp_r/mtp_angle_r/value	/jointset/mtp_r/mtp_angle_r/speed	/forceset/bifemlh_r/activation	/forceset/bifemlh_r/fiber_length	/forceset/bifemsh_r/activation	/forceset/bifemsh_r/fiber_length	/forceset/glut_max2_r/activation	/forceset/glut_max2_r/fiber_length	/forceset/vas_int_r/activation	/forceset/vas_int_r/fiber_length	/forceset/med_gas_r/activation	/forceset/med_gas_r/fiber_length	/forceset/tib_ant_r/activation	/forceset/tib_ant_r/fiber_length
      0.41256343	   -208.22251941	   -480.13863232	    208.41938128	    254.63067402	     -0.00000000	     -0.00000000	     -0.00000000	     -0.00000000	      0.00000000	      0.00000000	     -0.00000000	     -0.00000000	      0.00000000	      0.00000000	     -0.00000000	     -0.00000000	     41.33642483	     97.04487155	      4.38467325	     -0.10811667	      0.54116886	    -24.45723318	    -62.57748969	   -306.40821004	      0.00496343	      0.01530438	     -0.47675948	     -0.09566175	     17.44346440	      4.82424764	      0.04204338	     -0.09244155	     -0.02283043	      0.01096739	     21.86290699	    -15.50894732	     -0.00000000	     -0.00000000	     -0.00000000	     -0.00000000	     -0.02767544	      0.11727512	     -0.02767544	      0.16495115	     -0.02767544	      0.13128411	     -0.02767544	      0.13101478	      0.05000000	      0.10000000	      0.05000000	      0.10000000
      0.41312001	   -208.48975509	   -480.13863232	    208.56124395	    255.13491594	     -0.00000000	     -0.00000000	     -0.00000000	     -0.00000000	      0.00000000	      0.00000000	     -0.00000000	     -0.00000000	      0.00000000	      0.00000000	     -0.00000000	     -0.00000000	     41.39049755	     97.25850420	      4.38460994	     -0.11936858	      0.52756409	    -24.42982530	    -62.74804037	   -306.44339276	      0.00497185	      0.01495773	     -0.47681277	     -0.09579734	     17.44612494	      4.73619613	      0.04199190	     -0.09256444	     -0.02282433	      0.01093629	     21.85436723	    -15.17776670	     -0.00000000	     -0.00000000	     -0.00000000	     -0.00000000	     -0.02774710	      0.11723787	     -0.02774710	      0.16485693	     -0.02774710	      0.13132412	     -0.02774710	      0.13113612	      0.05000000	      0.10000000	      0.05000000	      0.10000000
      0.41367659	   -208.75699078	   -480.13863232	    208.70338767	    255.64062023	     -0.00000000	     -0.00000000	     -0.00000000	     -0.00000000	      0.00000000	      0.00000000	     -0.00000000	     -0.00000000	      0.00000000	      0.00000000	     -0.00000000	     -0.00000000	     41.44468913	     97.47199222	      4.38454037	     -0.13062417	      0.51397450	    -24.40264584	    -62.91860989	   -306.47593582	      0.00498008	      0.01461085	     -0.47686612	     -0.09593141	     17.44873670	      4.64895046	      0.04194035	     -0.09268711	     -0.02281825	      0.01090330	     21.84601151	    -14.84763313	     -0.00000000	     -0.00000000	     -0.00000000	     -0.00000000	     -0.02781876	      0.11720090	     -0.02781876	      0.16476281	     -0.02781876	      0.13136420	     -0.02781876	      0.13125693	      0.05000000	      0.10000000	      0.05000000	      0.10000000
      0.41423317	   -209.02422647	   -480.13863232	    208.84581327	    256.14779496	     -0.00000000	     -0.00000000	     -0.00000000	     -0.00000000	      0.00000000	      0.00000000	     -0.00000000	     -0.00000000	      0.00000000	      0.00000000	     -0.00000000	     -0.00000000	     41.49899950	     97.68534208	      4.38446454	     -0.14188296	      0.50039998	    -24.37569312	    -63.08919680	   -306.50584716	      0.00498811	      0.01426377	     -0.47691955	     -0.09606394	     17.45130012	      4.56251433	      0.04188872	     -0.09280955	     -0.02281219	      0.01086842	     21.83783924	    -14.51853696	     -0.00000000	     -0.00000000	     -0.00000000	     -0.00000000	     -0.02789042	      0.11716421	     -0.02789042	      0.16466878	     -0.02789042	      0.13140436	     -0.02789042	      0.13137831	      0.05000000	      0.10000000	      0.05000000	      0.10000000
      0.41478975	   -209.29146215	   -480.13863232	    208.98852156	    256.65644819	     -0.00000000	     -0.00000000	     -0.00000000	     -0.00000000	      0.00000000	      0.00000000	     -0.00000000	     -0.00000000	      0.00000000	      0.00000000	     -0.00000000	     -0.00000000	     41.55342857	     97.89856012	      4.38438243	     -0.15314445	      0.48684040	    -24.34896546	    -63.25979962	   -306.53313453	      0.00499596	      0.01391649	     -0.47697306	     -0.09619495	     17.45381566	      4.47689134	      0.04183703	     -0.09293177	     -0.02280616	      0.01083165	     21.82984985	    -14.19046866	     -0.00000000	     -0.00000000	     -0.00000000	     -0.00000000	     -0.02796208	      0.11712780	     -0.02796208	      0.16457486	     -0.02796208	      0.13144460	     -0.02796208	      0.13149795	      0.05000000	      0.10000000	      0.05000000	      0.10000000
      0.41534633	   -209.55869784	   -480.13863232	    209.13151337	    257.16658797	     -0.00000000	     -0.00000000	     -0.00000000	     -0.00000000	      0.00000000	      0.00000000	     -0.00000000	     -0.00000000	      0.00000000	      0.00000000	     -0.00000000	     -0.00000000	     41.60797629	     98.11165265	      4.38429406	     -0.16440819	      0.47329563	    -24.32246117	    -63.43041690	   -306.55780551	      0.00500361	      0.01356903	     -0.47702663	     -0.09632442	     17.45628377	      4.39208501	      0.04178528	     -0.09305377	     -0.02280014	      0.01079299	     21.82204278	    -13.86341878	     -0.00000000	     -0.00000000	     -0.00000000	     -0.00000000	     -0.02803373	      0.11709168	     -0.02803373	      0.16448104	     -0.02803373	      0.13148492	     -0.02803373	      0.13162078	      0.05000000	      0.10000000	      0.05000000	      0.10000000
